<svg xmlns="http://www.w3.org/2000/svg" xmlns:xlink="http://www.w3.org/1999/xlink" version="1.1" id="Layer_1" x="0px" y="0px" viewBox="0 0 197.8 64.9" style="enable-background:new 0 0 197.8 64.9;" xml:space="preserve">
<style type="text/css">
	
		.st0{fill-rule:evenodd;clip-rule:evenodd;fill:none;stroke:#FFFFFF;stroke-width:4.8;stroke-linecap:square;stroke-linejoin:round;stroke-miterlimit:2.6131;}
	.st1{fill-rule:evenodd;clip-rule:evenodd;fill:url(#SVGID_1_);stroke:#F58633;stroke-width:4.75;stroke-miterlimit:2.6131;}
	.st2{fill-rule:evenodd;clip-rule:evenodd;fill:#F58633;stroke:#F58633;stroke-miterlimit:2.6131;}
	.st3{fill-rule:evenodd;clip-rule:evenodd;fill:#F48120;}
	.st4{fill-rule:evenodd;clip-rule:evenodd;fill:none;}
	.st5{stroke:#FFFFFF;stroke-miterlimit:10;}
	.st6{fill:#F58633;}
</style>
<g>
	<path class="st0" d="M8.4,21.3c0-2.4,0-4.8,0-7.2c0-2.3,2.3-4.2,5.2-4.2H25L39.1,25v20.9c0,2.3-2.3,4.2-5.2,4.2   c-6.8,0-12.2,0-18.9,0"/>
	<linearGradient id="SVGID_1_" gradientUnits="userSpaceOnUse" x1="8.4195" y1="35.4789" x2="8.4195" y2="35.4789">
		<stop offset="0" style="stop-color:#FFFFFF"/>
		<stop offset="1" style="stop-color:#FFFFFF"/>
	</linearGradient>
	<line class="st1" x1="8.4" y1="27" x2="8.4" y2="43.9"/>
	<rect x="12.9" y="27.6" class="st2" width="11.2" height="3.6"/>
	<rect x="12.9" y="39.8" class="st2" width="11.2" height="3.6"/>
	<rect x="12.9" y="33.7" class="st2" width="11.2" height="3.6"/>
	<path class="st3" d="M76.2,22.3c1.9,0,3.4-1.4,3.4-3.2c0-1.7-1.5-3.2-3.4-3.2c-1.9,0-3.4,1.4-3.4,3.2   C72.8,20.8,74.3,22.3,76.2,22.3z"/>
</g>
<polyline class="st4" points="240.1,-105.6 240.1,177.1 -43.1,177.1 "/>
<g>
	<path class="st5" d="M68.3,24.8v4.8H55.7c-1.1,0-1.9,0.3-2.4,0.9c-0.5,0.6-0.8,1.4-0.8,2.3c0,0.4,0.1,0.8,0.2,1.2   c0.1,0.4,0.3,0.7,0.6,1c0.3,0.3,0.6,0.6,1.1,0.7c0.5,0.2,1.1,0.3,1.8,0.3h5.7c1.7,0,3,0.2,4.1,0.7c1.1,0.5,1.9,1.1,2.5,1.8   c0.6,0.8,1,1.6,1.3,2.6c0.2,1,0.3,1.9,0.3,2.9c0,1.2-0.1,2.2-0.4,3.2c-0.3,1-0.8,1.8-1.4,2.5c-0.6,0.7-1.4,1.3-2.4,1.7   c-1,0.4-2.2,0.6-3.6,0.6H48.7v-4.8h13.8c1.2,0,2-0.3,2.6-0.9c0.5-0.6,0.8-1.4,0.8-2.4c0-0.4-0.1-0.9-0.2-1.3   c-0.1-0.4-0.3-0.8-0.6-1.1c-0.3-0.3-0.7-0.6-1.2-0.7c-0.5-0.2-1.1-0.3-1.9-0.3h-5.7c-1.6,0-3-0.2-4-0.7c-1-0.5-1.9-1.1-2.5-1.8   c-0.6-0.8-1-1.6-1.2-2.5c-0.2-0.9-0.3-1.9-0.3-2.8c0-1.1,0.1-2.2,0.4-3.1c0.3-1,0.7-1.8,1.3-2.5c0.6-0.7,1.4-1.2,2.4-1.6   c1-0.4,2.1-0.6,3.5-0.6H68.3z"/>
	<path class="st5" d="M78.1,24.8V52h-4.3V24.8H78.1z"/>
	<path class="st5" d="M87.2,52h-4.3V30.2c0-1.8,0.4-3.2,1.3-4.3c0.9-1.1,2.3-1.6,4.1-1.6c1.6,0,2.9,0.5,3.8,1.4   c0.9,0.9,1.5,2.1,2,3.7l6,17.4c0.1,0.4,0.3,0.6,0.5,0.8c0.2,0.2,0.5,0.3,0.9,0.3c0.4,0,0.7-0.1,0.9-0.4c0.2-0.3,0.4-0.7,0.4-1.1   V30.2c0-1.8,0.4-3.2,1.3-4.3s2.3-1.6,4.1-1.6c1.6,0,2.9,0.5,3.8,1.4c0.9,0.9,1.6,2.1,2.1,3.7l7.6,22.7h-4.6l-7.3-22   c-0.1-0.3-0.3-0.6-0.5-0.8c-0.2-0.2-0.5-0.3-0.9-0.3c-0.4,0-0.7,0.1-0.9,0.4c-0.2,0.3-0.3,0.7-0.3,1.2v16.1c0,1.8-0.5,3.3-1.4,4.3   c-0.9,1.1-2.3,1.6-4.1,1.6c-1.6,0-2.9-0.5-3.7-1.4c-0.9-0.9-1.5-2.1-2-3.7l-6-17.4c-0.1-0.3-0.3-0.6-0.5-0.8   c-0.2-0.2-0.5-0.3-0.8-0.3c-0.4,0-0.7,0.1-0.9,0.4s-0.3,0.7-0.3,1.2V52z"/>
</g>
<g>
	<g>
		<g>
			<path d="M131.3,15.3v37.2h-5.1V15.3H131.3z"/>
			<path d="M152.5,26.7v5h-8.9c-2.1,0-3.3,1.2-3.3,3.4v17.6h-5.1V34.2c0-2.7,0.5-4.6,1.5-5.7c1-1.2,2.7-1.8,5.3-1.8     C142.2,26.7,152.5,26.7,152.5,26.7z"/>
			<path d="M159.5,16.8v6h-5.1v-6C154.4,16.8,159.5,16.8,159.5,16.8z M159.5,26.7v26h-5.1v-26H159.5z"/>
			<path d="M179.7,26.7c3.4,0,6,1.1,7.9,3.2s3,5.4,3,9.8c0,4.4-1,7.6-3,9.8s-4.6,3.2-7.9,3.2h-11.2V63h-5.1V37.7     c0-3.8,0.8-6.6,2.3-8.4c1.5-1.8,3.9-2.8,6.9-2.8h7V26.7z M168.5,47.5h10.6c2.1,0,3.8-0.6,4.8-1.8c1-1.3,1.5-3.3,1.5-6     c0-2.9-0.5-4.9-1.5-6c-1-1.3-2.5-1.9-4.8-1.9h-5c-2,0-3.6,0.5-4.4,1.5c-0.8,1-1.3,2.7-1.3,4.9v9.4H168.5z"/>
		</g>
	</g>
	<path class="st6" d="M185.2,15.4c-1.8-2-4.4-3-7.7-3h-12.6c-0.3,0-0.6-0.1-0.8-0.3L151.3,1.6c-1.1-0.8-2.5-0.7-3.7,0.1   c-0.9,1-1.2,2.5-0.4,3.7l3.1,4.7c0.6,1,0,2.2-1.1,2.2c-5.5,0-11.1,0-16.6,0.1c-0.5,0-1.3,0-2.2,0c-2.2,0-3.3,0-3.7,0.1   c-2,0.4-4.7,2.8-4.7,5.7c0,2.3,1.5,4.4,3.2,5.3c1.2,0.7,2.4,0.7,3.1,0.7c1.5,0,3.8,0,6.5,0c2.2,0,3.4,0,7.4,0c3,0,5.8,0,8.8,0   c3.1,0,6.1,0,9.2,0c5.6,0,11.2,0,16.8-0.1c3.3,0,6.5,0.1,9.7-0.1c0.7,0,1.3-0.3,1.3-1.1C187.9,22.7,188.1,18.4,185.2,15.4z    M149.7,3.2c-0.1,0-0.1,0-0.2,0C149.6,3.2,149.6,3.2,149.7,3.2z"/>
	<g>
	</g>
</g>
</svg>