<svg version="1.1" id="Layer_1" xmlns="http://www.w3.org/2000/svg" xmlns:xlink="http://www.w3.org/1999/xlink" x="0" y="0" viewBox="0 0 500 500" style="enable-background:new 0 0 500 500" xml:space="preserve"><style>.st0,.st1{fill:none;stroke:#585c60;stroke-linecap:round;stroke-linejoin:round;stroke-miterlimit:10;stroke-dasharray:12.2112,12.2112}.st1{stroke-dasharray:7,7}.st4{fill:#6e79e0}.st6{fill:#3178c6}.st9{fill:#ebebeb}.st10{fill:#fff}.st16{fill:#c8d0fc}.st17{fill:#4b5fd1}.st18{fill:none;stroke:#585c60;stroke-miterlimit:10}</style><circle class="st0" cx="370" cy="160" r="119.5"/><circle class="st0" cx="370" cy="160" r="80.5"/><circle class="st0" cx="65" cy="135" r="58.5"/><circle class="st1" cx="169" cy="58" r="15.5"/><circle class="st1" cx="466" cy="471.5" r="15.5"/><circle cx="137" cy="29" r="7.5" style="fill:none;stroke:#585c60;stroke-linecap:round;stroke-linejoin:round;stroke-miterlimit:10;stroke-dasharray:4,4"/><path d="M61.7 106h376.7c10.9 0 19.7 8.8 19.7 19.7v249.7c0 10.9-8.8 19.7-19.7 19.7H61.7c-10.9 0-19.7-8.8-19.7-19.7V125.7c0-10.9 8.8-19.7 19.7-19.7z" style="fill:#222323"/><circle class="st4" cx="73.6" cy="128" r="4"/><circle class="st4" cx="85.3" cy="128" r="4"/><circle class="st4" cx="97" cy="128" r="4"/><defs><circle id="SVGID_1_" cx="129.7" cy="395" r="21"/></defs><use xlink:href="#SVGID_1_" style="overflow:visible;fill:#3178c6"/><clipPath id="SVGID_2_"><use xlink:href="#SVGID_1_" style="overflow:visible"/></clipPath><g style="clip-path:url(#SVGID_2_)"><path class="st6" d="M108.7 374h42v42h-42z"/><path class="st6" d="M108.7 374h21v42h-21zm21 0h21v42h-21z"/><path id="path56" class="st6" d="m133.8 397.6-4.3 2h-4.6l-2.1 5.4-4 .1 10.7-23.7 4.3 16.2zm-.4-1-3.9-7.7-3.2 7.5h3.1l4 .2z"/><path id="polygon58" class="st6" d="M133.1 396.4h-3.6l-.1 3.2h5.1l2.3 5.4 3.8.1-11.2-23.8.1 7.6z"/></g><defs><circle id="SVGID_3_" cx="250" cy="115" r="16"/></defs><clipPath id="SVGID_4_"><use xlink:href="#SVGID_3_" style="overflow:visible"/></clipPath><g style="clip-path:url(#SVGID_4_)"><path style="fill:#264de4" d="M234 99h32v32h-32z"/><path id="polygon2993" class="st9" d="m242 112.2.3 3.5h7.7v-3.5z"/><path id="polygon2995" class="st9" d="M250 105.3h-8.6l.3 3.4h8.3z"/><path id="polygon2997" class="st9" d="M250 124.7v-3.6.1l-3.8-1.1-.3-2.7h-3.4l.5 5.4z"/><path id="polygon3005" class="st10" d="m254.2 115.7-.4 4.4-3.8 1.1v3.5l7-1.9.1-.6.8-9.1.1-.9.6-6.9H250v3.4h4.8l-.3 3.5H250v3.5z"/></g><defs><circle id="SVGID_5_" cx="333" cy="360" r="22"/></defs><clipPath id="SVGID_6_"><use xlink:href="#SVGID_5_" style="overflow:visible"/></clipPath><g style="clip-path:url(#SVGID_6_)"><path style="fill:#333" d="M311 338h44v44h-44z"/><path d="M333 374.7c-.4 0-.8-.1-1.1-.3l-3.6-2.1c-.5-.3-.3-.4-.1-.5.7-.2.9-.3 1.6-.7.1-.1.2 0 .3 0l2.8 1.7c.1.1.2.1.3 0l10.8-6.3c.1-.1.2-.2.2-.3v-12.5c0-.1-.1-.2-.2-.3l-10.8-6.2c-.1-.1-.2-.1-.3 0l-10.8 6.2c-.1.1-.2.2-.2.3v12.5c0 .1.1.2.2.3l3 1.7c1.6.8 2.6-.1 2.6-1.1v-12.3c0-.2.1-.3.3-.3h1.4c.2 0 .3.1.3.3v12.3c0 2.1-1.2 3.4-3.2 3.4-.6 0-1.1 0-2.5-.7l-2.9-1.6c-.7-.4-1.1-1.2-1.1-2v-12.5c0-.8.4-1.6 1.1-2l10.8-6.3c.7-.4 1.6-.4 2.3 0l10.8 6.3c.7.4 1.1 1.2 1.1 2v12.5c0 .8-.4 1.6-1.1 2l-10.8 6.3c-.4.1-.8.2-1.2.2zm3.3-8.6c-4.7 0-5.7-2.2-5.7-4 0-.2.1-.3.3-.3h1.4c.2 0 .3.1.3.3.2 1.4.8 2.1 3.7 2.1 2.3 0 3.3-.5 3.3-1.7 0-.7-.3-1.2-3.8-1.6-3-.3-4.8-1-4.8-3.3 0-2.2 1.8-3.5 4.9-3.5 3.5 0 5.2 1.2 5.4 3.8 0 .1 0 .2-.1.2-.1.1-.1.1-.2.1h-1.4c-.1 0-.3-.1-.3-.2-.3-1.5-1.2-2-3.4-2-2.5 0-2.8.9-2.8 1.5 0 .8.4 1 3.7 1.5 3.3.4 4.9 1.1 4.9 3.4 0 2.4-1.9 3.7-5.4 3.7z" style="fill:#539e43"/></g><defs><circle id="SVGID_7_" cx="403" cy="226" r="18"/></defs><clipPath id="SVGID_8_"><use xlink:href="#SVGID_7_" style="overflow:visible"/></clipPath><g style="clip-path:url(#SVGID_8_)"><path d="M385 208h36v36h-36v-36z" style="fill:#f7df1e"/><path d="m393 236.6 2.8-1.7c.5.9 1 1.7 2.2 1.7 1.1 0 1.8-.4 1.8-2.1V223h3.4v11.5c0 3.5-2.1 5.1-5.1 5.1-2.7.1-4.3-1.3-5.1-3m12-.3 2.8-1.6c.7 1.2 1.7 2.1 3.3 2.1 1.4 0 2.3-.7 2.3-1.7 0-1.2-.9-1.6-2.5-2.2l-.8-.4c-2.4-1-4.1-2.3-4.1-5.1 0-2.5 1.9-4.5 5-4.5 2.1 0 3.7.7 4.8 2.7l-2.6 1.7c-.6-1-1.2-1.5-2.2-1.5s-1.6.6-1.6 1.5c0 1 .6 1.4 2.1 2.1l.8.4c2.9 1.2 4.5 2.5 4.5 5.3 0 3-2.4 4.7-5.6 4.7-3.2-.1-5.2-1.6-6.2-3.5"/></g><path class="st4" d="M168 172H84c-1.7 0-3-1.3-3-3s1.3-3 3-3h84c1.7 0 3 1.3 3 3s-1.3 3-3 3z"/><path class="st16" d="M140 185H95c-1.7 0-3-1.3-3-3s1.3-3 3-3h45c1.7 0 3 1.3 3 3s-1.3 3-3 3z"/><path class="st4" d="M227 185h-45c-1.7 0-3-1.3-3-3s1.3-3 3-3h45c1.7 0 3 1.3 3 3s-1.3 3-3 3zm-53 13h-45c-1.7 0-3-1.3-3-3s1.3-3 3-3h45c1.7 0 3 1.3 3 3s-1.3 3-3 3z"/><path class="st17" d="M172 185h-22c-1.7 0-3-1.3-3-3s1.3-3 3-3h22c1.7 0 3 1.3 3 3s-1.3 3-3 3z"/><path class="st16" d="M119 236H95c-1.7 0-3-1.3-3-3s1.3-3 3-3h24c1.7 0 3 1.3 3 3s-1.3 3-3 3z"/><path class="st17" d="M119 198H95c-1.7 0-3-1.3-3-3s1.3-3 3-3h24c1.7 0 3 1.3 3 3s-1.3 3-3 3zm55 26h-45c-1.7 0-3-1.3-3-3s1.3-3 3-3h45c1.7 0 3 1.3 3 3s-1.3 3-3 3z"/><path class="st4" d="M119 224H95c-1.7 0-3-1.3-3-3s1.3-3 3-3h24c1.7 0 3 1.3 3 3s-1.3 3-3 3z"/><path class="st16" d="M208 198h-24c-1.7 0-3-1.3-3-3s1.3-3 3-3h24c1.7 0 3 1.3 3 3s-1.3 3-3 3z"/><path class="st4" d="M130 211H95c-1.7 0-3-1.3-3-3s1.3-3 3-3h35c1.7 0 3 1.3 3 3s-1.3 3-3 3zm45 0h-35c-1.7 0-3-1.3-3-3s1.3-3 3-3h35c1.7 0 3 1.3 3 3s-1.3 3-3 3zm45 0h-35c-1.7 0-3-1.3-3-3s1.3-3 3-3h35c1.7 0 3 1.3 3 3s-1.3 3-3 3zm-52 39H84c-1.7 0-3-1.3-3-3s1.3-3 3-3h84c1.7 0 3 1.3 3 3s-1.3 3-3 3zm0 41H84c-1.7 0-3-1.3-3-3s1.3-3 3-3h84c1.7 0 3 1.3 3 3s-1.3 3-3 3z"/><path class="st16" d="M125 305H95c-1.7 0-3-1.3-3-3s1.3-3 3-3h30c1.7 0 3 1.3 3 3s-1.3 3-3 3z"/><path class="st17" d="M165 305h-30c-1.7 0-3-1.3-3-3s1.3-3 3-3h30c1.7 0 3 1.3 3 3s-1.3 3-3 3z"/><path class="st4" d="M205 305h-30c-1.7 0-3-1.3-3-3s1.3-3 3-3h30c1.7 0 3 1.3 3 3s-1.3 3-3 3zm-37 15H84c-1.7 0-3-1.3-3-3s1.3-3 3-3h84c1.7 0 3 1.3 3 3s-1.3 3-3 3z"/><path class="st18" d="M275 122s2.2 0 6 .4"/><path d="M293.1 123.9c25.2 4.3 70.4 18.2 92.2 62.9" style="fill:none;stroke:#585c60;stroke-miterlimit:10;stroke-dasharray:12.2112,12.2112"/><path class="st18" d="M387.8 192.4c.8 1.8 1.5 3.7 2.2 5.6"/><path d="M316.5 250.5s48 10 62-21M311 270s29 17 24 59m-181.5 76.5s101 30 157-24" style="stroke-dasharray:12;fill:none;stroke:#585c60;stroke-miterlimit:10"/><defs><circle id="SVGID_9_" cx="285" cy="245" r="25"/></defs><clipPath id="SVGID_10_"><use xlink:href="#SVGID_9_" style="overflow:visible"/></clipPath><g style="clip-path:url(#SVGID_10_)" transform="translate(178.063 235.009)"><g id="g12"><path id="path14" d="M109.9 0 107 5.1 104 0h-9.8l12.7 22 12.8-22h-9.8z" style="fill:#4dba87"/></g><g id="g16"><path id="path18" d="M109.9 0 107 5.1 104 0h-4.7l7.6 13.2L114.6 0h-4.7z" style="fill:#435466"/></g></g><path class="st10" d="M135.2 405.1v3.6c.6.3 1.3.5 2.1.7s1.6.2 2.5.2c.9 0 1.7-.1 2.4-.2.8-.2 1.4-.4 2-.8.6-.4 1-.9 1.4-1.5.3-.6.5-1.4.5-2.2 0-.6-.1-1.2-.3-1.7s-.5-.9-.8-1.3c-.4-.4-.8-.7-1.3-1-.5-.3-1.1-.6-1.7-.9-.5-.2-.9-.4-1.3-.6-.4-.2-.7-.4-.9-.6-.3-.2-.5-.4-.6-.6-.1-.2-.2-.5-.2-.7 0-.2.1-.5.2-.7.1-.2.3-.4.5-.5.2-.1.5-.3.8-.3.3-.1.7-.1 1.1-.1.3 0 .6 0 .9.1.3 0 .7.1 1 .2.3.1.7.2 1 .4.3.1.6.3.9.5v-3.3c-.5-.2-1.1-.4-1.8-.5s-1.4-.2-2.2-.2c-.8 0-1.7.1-2.4.3-.8.2-1.4.5-2 .9-.6.4-1 .9-1.4 1.5-.3.6-.5 1.3-.5 2.1 0 1.1.3 2 .9 2.7.6.8 1.5 1.4 2.8 1.9.5.2.9.4 1.4.6s.8.4 1.1.6c.3.2.6.4.7.7.2.2.3.5.3.8 0 .2-.1.4-.2.6-.1.2-.3.4-.5.5s-.5.3-.8.3c-.3.1-.7.1-1.2.1-.8 0-1.5-.1-2.3-.4-.7-.3-1.5-.7-2.1-1.2zm-6-8.8h4.6v-2.9H121v2.9h4.6v13.1h3.6v-13.1z"/></svg>